<svg xmlns="http://www.w3.org/2000/svg" width="880" height="220" viewBox="0 0 880 220">
<g font-family="'Segoe UI', Ubuntu, Helvetica, Arial, sans-serif">
  <text x="30" y="72" font-size="52" font-weight="700" fill="#e6edf3">1,072</text>
  <text x="30" y="98" font-size="14" fill="#8b949e">contributions · 2025-08-24 → 2026-08-27</text>
  <text x="30" y="148" font-size="17" font-weight="600" fill="#3fb950">40</text><text x="30" y="163" font-size="11" fill="#8b949e">busiest day · 2026-05-03</text><text x="153" y="148" font-size="17" font-weight="600" fill="#3fb950">104/369</text><text x="153" y="163" font-size="11" fill="#8b949e">active days</text><text x="276" y="148" font-size="17" font-weight="600" fill="#3fb950">2.9</text><text x="276" y="163" font-size="11" fill="#8b949e">per-day average</text><text x="30" y="183" font-size="17" font-weight="600" fill="#3fb950">4 d</text><text x="30" y="198" font-size="11" fill="#8b949e">current streak</text><text x="153" y="183" font-size="17" font-weight="600" fill="#3fb950">19 d</text><text x="153" y="198" font-size="11" fill="#8b949e">longest streak</text>
  <line x1="400" y1="150.5" x2="850" y2="150.5" stroke="#30363d" stroke-width="1" />
  <rect x="400.0" y="150.0" width="6.5" height="0.5" rx="1.5" fill="#26a641" /><rect x="408.5" y="150.0" width="6.5" height="0.5" rx="1.5" fill="#26a641" /><rect x="417.0" y="149.5" width="6.5" height="0.5" rx="1.5" fill="#26a641" /><rect x="425.5" y="150.0" width="6.5" height="0.5" rx="1.5" fill="#26a641" /><rect x="434.0" y="150.0" width="6.5" height="0.5" rx="1.5" fill="#26a641" /><rect x="442.5" y="150.0" width="6.5" height="0.5" rx="1.5" fill="#26a641" /><rect x="450.9" y="150.0" width="6.5" height="0.5" rx="1.5" fill="#26a641" /><rect x="459.4" y="150.0" width="6.5" height="0.5" rx="1.5" fill="#26a641" /><rect x="467.9" y="150.0" width="6.5" height="0.5" rx="1.5" fill="#26a641" /><rect x="476.4" y="150.0" width="6.5" height="0.5" rx="1.5" fill="#26a641" /><rect x="484.9" y="150.0" width="6.5" height="0.5" rx="1.5" fill="#26a641" /><rect x="493.4" y="150.0" width="6.5" height="0.5" rx="1.5" fill="#26a641" /><rect x="501.9" y="150.0" width="6.5" height="0.5" rx="1.5" fill="#26a641" /><rect x="510.4" y="150.0" width="6.5" height="0.5" rx="1.5" fill="#26a641" /><rect x="518.9" y="150.0" width="6.5" height="0.5" rx="1.5" fill="#26a641" /><rect x="527.4" y="150.0" width="6.5" height="0.5" rx="1.5" fill="#26a641" /><rect x="535.8" y="150.0" width="6.5" height="0.5" rx="1.5" fill="#26a641" /><rect x="544.3" y="150.0" width="6.5" height="0.5" rx="1.5" fill="#26a641" /><rect x="552.8" y="150.0" width="6.5" height="0.5" rx="1.5" fill="#26a641" /><rect x="561.3" y="150.0" width="6.5" height="0.5" rx="1.5" fill="#26a641" /><rect x="569.8" y="150.0" width="6.5" height="0.5" rx="1.5" fill="#26a641" /><rect x="578.3" y="150.0" width="6.5" height="0.5" rx="1.5" fill="#26a641" /><rect x="586.8" y="150.0" width="6.5" height="0.5" rx="1.5" fill="#26a641" /><rect x="595.3" y="150.0" width="6.5" height="0.5" rx="1.5" fill="#26a641" /><rect x="603.8" y="150.0" width="6.5" height="0.5" rx="1.5" fill="#26a641" /><rect x="612.3" y="150.0" width="6.5" height="0.5" rx="1.5" fill="#26a641" /><rect x="620.8" y="150.0" width="6.5" height="0.5" rx="1.5" fill="#26a641" /><rect x="629.2" y="150.0" width="6.5" height="0.5" rx="1.5" fill="#26a641" /><rect x="637.7" y="150.0" width="6.5" height="0.5" rx="1.5" fill="#26a641" /><rect x="646.2" y="147.9" width="6.5" height="2.1" rx="1.5" fill="#26a641" /><rect x="654.7" y="147.3" width="6.5" height="2.7" rx="1.5" fill="#26a641" /><rect x="663.2" y="120.0" width="6.5" height="30.0" rx="1.5" fill="#26a641" /><rect x="671.7" y="150.0" width="6.5" height="0.5" rx="1.5" fill="#26a641" /><rect x="680.2" y="127.5" width="6.5" height="22.5" rx="1.5" fill="#26a641" /><rect x="688.7" y="131.2" width="6.5" height="18.8" rx="1.5" fill="#26a641" /><rect x="697.2" y="117.8" width="6.5" height="32.2" rx="1.5" fill="#26a641" /><rect x="705.7" y="40.0" width="6.5" height="110.0" rx="1.5" fill="#26a641" /><rect x="714.2" y="130.7" width="6.5" height="19.3" rx="1.5" fill="#26a641" /><rect x="722.6" y="129.1" width="6.5" height="20.9" rx="1.5" fill="#26a641" /><rect x="731.1" y="122.6" width="6.5" height="27.4" rx="1.5" fill="#26a641" /><rect x="739.6" y="114.0" width="6.5" height="36.0" rx="1.5" fill="#26a641" /><rect x="748.1" y="106.0" width="6.5" height="44.0" rx="1.5" fill="#26a641" /><rect x="756.6" y="138.2" width="6.5" height="11.8" rx="1.5" fill="#26a641" /><rect x="765.1" y="140.9" width="6.5" height="9.1" rx="1.5" fill="#26a641" /><rect x="773.6" y="140.3" width="6.5" height="9.7" rx="1.5" fill="#26a641" /><rect x="782.1" y="135.0" width="6.5" height="15.0" rx="1.5" fill="#26a641" /><rect x="790.6" y="137.1" width="6.5" height="12.9" rx="1.5" fill="#26a641" /><rect x="799.1" y="116.2" width="6.5" height="33.8" rx="1.5" fill="#26a641" /><rect x="807.5" y="136.6" width="6.5" height="13.4" rx="1.5" fill="#26a641" /><rect x="816.0" y="136.6" width="6.5" height="13.4" rx="1.5" fill="#26a641" /><rect x="824.5" y="110.3" width="6.5" height="39.7" rx="1.5" fill="#26a641" /><rect x="833.0" y="114.0" width="6.5" height="36.0" rx="1.5" fill="#26a641" /><rect x="841.5" y="136.0" width="6.5" height="14.0" rx="1.5" fill="#26a641" />
  <text x="400" y="172" font-size="11" fill="#8b949e">weekly contributions · peak 205</text>
  <text x="850" y="28" font-size="11" text-anchor="end" fill="#8b949e">same data as the official heatmap</text>
</g>
</svg>